<?xml version="1.0" standalone="no"?>
<!DOCTYPE svg PUBLIC "-//W3C//DTD SVG 20010904//EN"
 "http://www.w3.org/TR/2001/REC-SVG-20010904/DTD/svg10.dtd">
<svg version="1.0" xmlns="http://www.w3.org/2000/svg"
 width="260.000000pt" height="260.000000pt" viewBox="0 0 260.000000 260.000000"
 preserveAspectRatio="xMidYMid meet">
<metadata>
Created by potrace 1.11, written by Peter Selinger 2001-2013
</metadata>
<g transform="translate(0.000000,260.000000) scale(0.100000,-0.100000)"
fill="#000000" stroke="none">
<path d="M1043 2578 c-25 -33 -92 -210 -109 -287 -39 -177 -49 -276 -48 -501
0 -248 10 -360 54 -610 6 -30 12 -66 15 -80 3 -14 10 -47 16 -75 6 -27 13 -63
15 -78 2 -16 7 -33 10 -39 4 -6 8 -21 10 -32 1 -12 10 -48 19 -81 9 -33 18
-64 19 -70 1 -5 9 -30 16 -55 7 -25 14 -50 16 -57 3 -15 53 -173 61 -193 3 -8
7 -19 8 -25 9 -35 133 -376 140 -383 2 -2 0 23 -3 55 -9 78 -8 432 1 513 7 57
16 119 34 225 12 72 57 227 90 309 109 275 294 499 500 607 32 17 63 35 68 42
7 8 6 8 -5 0 -30 -21 -256 -82 -365 -98 -69 -11 -218 -14 -262 -6 -41 8 -43 7
-52 -23 -10 -34 -28 -113 -36 -161 -2 -16 -7 -41 -10 -55 -3 -14 -7 -41 -9
-60 -2 -19 -7 -66 -11 -105 -8 -73 -12 -116 -14 -151 0 -12 -9 -30 -18 -42
-10 -11 -23 -28 -29 -38 -9 -15 -14 -11 -38 30 -26 44 -27 52 -21 128 3 45 8
84 10 88 3 5 7 23 9 41 3 19 12 58 21 88 9 30 18 62 20 70 5 26 67 185 77 197
5 8 -9 19 -44 34 -61 26 -158 119 -177 171 -7 19 -17 43 -22 54 -33 75 -31
389 2 431 5 6 6 13 4 16 -5 5 14 83 44 186 10 34 9 39 -6 20z"/>
<path d="M1270 2149 c-127 -77 -110 -317 26 -364 75 -26 169 33 193 122 45
161 -96 317 -219 242z"/>
</g>
</svg>
