<?xml version="1.0" encoding="utf-8"?>
<!-- Generator: Adobe Illustrator 18.0.0, SVG Export Plug-In . SVG Version: 6.00 Build 0)  -->
<!DOCTYPE svg PUBLIC "-//W3C//DTD SVG 1.1//EN" "http://www.w3.org/Graphics/SVG/1.1/DTD/svg11.dtd">
<svg version="1.1" id="Capa_1" xmlns="http://www.w3.org/2000/svg" xmlns:xlink="http://www.w3.org/1999/xlink" x="0px" y="0px"
	 viewBox="299 111 768 546" enable-background="new 299 111 768 546" xml:space="preserve">
<g>
	<g>
		<path fill="#F5F5F5" d="M920.8,532.7c-3,0-6.1-1.1-8.5-3.4L769.8,395.6c-5-4.7-5.2-12.5-0.5-17.5c4.7-5,12.5-5.3,17.5-0.5
			l142.5,133.7c5,4.7,5.2,12.5,0.5,17.5C927.4,531.4,924.1,532.7,920.8,532.7z"/>
		<path fill="#F5F5F5" d="M445.2,532.7c-3.3,0-6.6-1.3-9-3.9c-4.7-5-4.4-12.8,0.5-17.5l142.5-133.7c5-4.7,12.9-4.5,17.5,0.5
			c4.7,5,4.4,12.8-0.5,17.5L453.6,529.3C451.3,531.6,448.2,532.7,445.2,532.7z"/>
	</g>
	<path fill="#F5F5F5" d="M1005.1,657H360.9c-34.1,0-61.9-27.8-61.9-61.9V172.9c0-34.2,27.8-61.9,61.9-61.9h644.2
		c34.1,0,61.9,27.8,61.9,61.9v422.2C1067,629.2,1039.2,657,1005.1,657z M360.9,135.8c-20.5,0-37.1,16.7-37.1,37.1v422.2
		c0,20.5,16.7,37.1,37.1,37.1h644.2c20.5,0,37.1-16.7,37.1-37.1V172.9c0-20.5-16.7-37.1-37.1-37.1H360.9z"/>
	<path fill="#F5F5F5" d="M683,446.2c-16.5,0-32.9-5.5-45.5-16.4l-318-277.4c-5.2-4.5-5.7-12.3-1.2-17.5c4.5-5.2,12.3-5.6,17.5-1.2
		l318,277.4c15.8,13.8,42.6,13.8,58.4,0l317.6-276.9c5.1-4.5,12.9-4,17.5,1.2c4.5,5.2,4,13-1.2,17.5L728.5,429.8
		C715.9,440.7,699.5,446.2,683,446.2z"/>
</g>
</svg>
