<?xml version="1.0" encoding="utf-8"?><!DOCTYPE svg PUBLIC "-//W3C//DTD SVG 1.1//EN" "http://www.w3.org/Graphics/SVG/1.1/DTD/svg11.dtd"><svg xmlns="http://www.w3.org/2000/svg" xmlns:xlink="http://www.w3.org/1999/xlink"><symbol viewBox="435.9 114 1092.3 768" id="arrow-back" xmlns="http://www.w3.org/2000/svg"><path d="M792.6 870.5c14.9 15.4 39.7 15.4 55 0 14.9-14.9 14.9-39.7 0-54.5l-279-279.2h921c21.5 0 38.5-17.1 38.5-38.5 0-21.5-17.1-39.1-38.5-39.1h-921l279.2-278.6c14.9-15.4 14.9-40.2 0-55-15.4-15.4-40.2-15.4-55 0L447.4 470.7c-15.4 14.9-15.4 39.7 0 54.5l345.2 345.3z"/></symbol><symbol viewBox="25.7 164.6 1314.6 767.9" id="arrow-down" xmlns="http://www.w3.org/2000/svg"><path d="M724.7 916.9l599.5-657.8c21.4-21.6 21.4-56.6 0-78.2s-56.3-21.6-77.8 0L683 799.1 119.7 180.8c-21.4-21.6-56.3-21.6-77.8 0s-21.4 56.6 0 78.2l599.5 657.8c11.5 11.5 26.6 16.4 41.7 15.6 15 1 30.1-4 41.6-15.5z"/></symbol><symbol viewBox="299 114 768 540" id="arrow-forward" xmlns="http://www.w3.org/2000/svg"><path d="M816.2 122.1c-10.5-10.8-27.9-10.8-38.7 0-10.5 10.5-10.5 27.9 0 38.3l196.3 196.3H326.1c-15.1 0-27.1 12-27.1 27.1s12 27.5 27.1 27.5h647.6L777.5 607.2c-10.5 10.8-10.5 28.3 0 38.7 10.8 10.8 28.3 10.8 38.7 0l242.7-242.7c10.8-10.5 10.8-27.9 0-38.3L816.2 122.1z"/></symbol><symbol viewBox="783.4 -108.7 448.7 768" id="arrow-left" xmlns="http://www.w3.org/2000/svg"><path d="M792.5 299.7l384.4 350.2c12.6 12.5 33.1 12.5 45.7 0s12.6-32.9 0-45.5L861.3 275.3l361.3-329.1c12.6-12.5 12.6-32.9 0-45.5s-33.1-12.5-45.7 0L792.6 251c-6.7 6.7-9.6 15.5-9.1 24.4-.6 8.7 2.3 17.6 9 24.3z"/></symbol><symbol viewBox="783.4 -108.7 448.7 768" id="arrow-right" xmlns="http://www.w3.org/2000/svg"><path d="M1222.9 250.9L838.6-99.3c-12.6-12.5-33.1-12.5-45.7 0s-12.6 32.9 0 45.5l361.2 329.2-361.3 329c-12.6 12.5-12.6 32.9 0 45.5s33.1 12.5 45.7 0l384.4-350.3c6.7-6.7 9.6-15.5 9.1-24.4.6-8.7-2.4-17.5-9.1-24.3z"/></symbol><symbol viewBox="25.7 164.6 1314.6 767.9" id="arrow-up" xmlns="http://www.w3.org/2000/svg"><path d="M641.3 180.2L41.7 838c-21.4 21.6-21.4 56.6 0 78.2s56.3 21.6 77.8 0L682.9 298l563.3 618.3c21.4 21.6 56.3 21.6 77.8 0s21.4-56.6 0-78.2L724.6 180.3c-11.5-11.5-26.6-16.4-41.7-15.6-15.1-1-30.2 4-41.6 15.5z"/></symbol><symbol viewBox="299 0 768 768" id="countries-belarus" xmlns="http://www.w3.org/2000/svg"><circle fill="#FCFCFC" cx="683" cy="384" r="384"/><g fill="#A2001D"><path d="M457.6 356.2l-41.7-75.8 41.7-74.5 41.7 74.5zM374.1 356.2l-41.7-75.8 41.7-74.5 41.8 74.5zM457.6 562.1l-41.7-75.7 41.7-74.6 41.7 74.6zM374.1 562.1l-41.7-75.7 41.7-74.6 41.8 74.6zM499.3 74.5l-11.8-21.1c-21.2 12.6-41.1 27.1-59.4 43.4l29.5 53.5 41.7-75.8zM457.6 617.7l-29.8 53.2c18.3 16.3 38.2 30.8 59.4 43.4l12.2-22.1-41.8-74.5z"/></g><path fill="#6DA544" d="M532.7 484.2v253.3c46.2 19.6 97 30.5 150.3 30.5 165.1 0 305.9-104.2 360.1-250.4l-510.4-33.4z"/><path fill="#A2001D" d="M1043.1 517.6C1058.6 476 1067 431 1067 384 1067 171.9 895.1 0 683 0c-53.3 0-104.1 10.9-150.3 30.5v487l510.4.1z"/></symbol><symbol viewBox="299 0 768 768" id="countries-kazakhstan" xmlns="http://www.w3.org/2000/svg"><circle fill="#338AF3" cx="683" cy="384" r="384"/><path fill="#FFDA44" d="M900 388.2H466c0 30 26.1 54.3 56.1 54.3h-1.8c0 30 24.3 54.3 54.3 54.3 0 30 24.3 54.3 54.3 54.3h108.5c30 0 54.3-24.3 54.3-54.3 30 0 54.3-24.3 54.3-54.3h-2c29.9-.1 56-24.4 56-54.3z"/><path fill="#338AF3" d="M833.3 317.2c0 83-67.3 150.3-150.3 150.3-83 0-150.3-67.3-150.3-150.3"/><path fill="#FFDA44" d="M797.8 317.2l-46.9 22.1 24.9 45.4-50.9-9.7-6.4 51.4-35.5-37.8-35.5 37.8-6.4-51.4-50.9 9.7 24.9-45.4-46.9-22.1 46.9-22-24.9-45.5 50.9 9.8 6.4-51.5 35.5 37.9 35.5-37.9 6.4 51.5 50.9-9.8-24.9 45.5z"/></symbol><symbol viewBox="299 0 768 768" id="countries-russia" xmlns="http://www.w3.org/2000/svg"><circle fill="#F0F0F0" cx="683" cy="384" r="384"/><path fill="#0052B4" d="M1043.1 517.6C1058.6 476 1067 431 1067 384s-8.4-92-23.9-133.6H322.9C307.4 292 299 337 299 384s8.4 92 23.9 133.6L683 551l360.1-33.4z"/><path fill="#D80027" d="M683 768c165.1 0 305.9-104.2 360.1-250.4H322.9C377.1 663.8 517.9 768 683 768z"/></symbol><symbol viewBox="355.5 0 655.1 768" id="icon-android" xmlns="http://www.w3.org/2000/svg"><path d="M403.2 250.4h-2c-25.2 0-45.8 20.6-45.8 45.8v199.3c0 25.3 20.6 45.8 45.8 45.8h2c25.2 0 45.8-20.6 45.8-45.8V296.2c0-25.1-20.6-45.8-45.8-45.8zM470.9 572.5c0 23.2 18.9 42 42.1 42h45v107.7c0 25.3 20.6 45.8 45.8 45.8h2c25.3 0 45.8-20.6 45.8-45.8V614.5h62.8v107.7c0 25.3 20.7 45.8 45.8 45.8h1.9c25.3 0 45.8-20.6 45.8-45.8V614.5h45c23.1 0 42-18.9 42-42V257.7h-424v314.8zM788.6 66.9l35.7-55.1c2.3-3.5 1.3-8.2-2.2-10.5-3.5-2.3-8.2-1.3-10.5 2.2l-37 57c-27.8-11.4-58.8-17.8-91.6-17.8s-63.8 6.4-91.6 17.8l-37-57c-2.3-3.6-7.1-4.5-10.6-2.2s-4.5 7-2.2 10.5l35.7 55.1C513 98.5 469.5 158 469.5 226.3c0 4.2.3 8.3.6 12.4h425.8c.4-4.1.6-8.2.6-12.4 0-68.3-43.5-127.8-107.9-159.4zm-204.3 98.7c-11.3 0-20.5-9.1-20.5-20.5 0-11.3 9.2-20.4 20.5-20.4 11.4 0 20.5 9.1 20.5 20.4 0 11.4-9.2 20.5-20.5 20.5zm197.4 0c-11.3 0-20.5-9.1-20.5-20.5 0-11.3 9.2-20.4 20.5-20.4s20.5 9.1 20.5 20.4c0 11.4-9.2 20.5-20.5 20.5zM964.7 250.4h-1.9c-25.2 0-45.8 20.6-45.8 45.8v199.3c0 25.3 20.7 45.8 45.8 45.8h1.9c25.3 0 45.8-20.6 45.8-45.8V296.2c0-25.1-20.6-45.8-45.8-45.8z"/></symbol><symbol viewBox="369.2 0 627.6 768" id="icon-apple" xmlns="http://www.w3.org/2000/svg"><path d="M401.6 282.3C336.7 395 377.9 566 449.7 669.6c35.8 51.8 72.1 98.4 121.8 98.4.9 0 1.9 0 2.8-.1 23.3-.9 40.2-8.1 56.5-15.1 18.3-7.8 37.3-15.9 67-15.9 28.3 0 46.3 7.8 63.8 15.4 17.2 7.4 34.9 15.1 61.1 14.6 56-1 90.4-51.2 120.7-95.5 31.6-46.2 47.5-91.1 52.9-108.3l.2-.7c1-3-.4-6.4-3.3-7.7-.1 0-.4-.2-.5-.2-9.9-4-96.3-42.4-97.2-147-.8-84.9 64.9-129.9 78.1-138.1l.6-.4c1.4-.9 2.4-2.4 2.8-4 .3-1.7 0-3.4-1-4.8-45.5-66.3-115-76.3-143-77.5-4.1-.4-8.3-.6-12.5-.6-32.9 0-64.4 12.4-89.7 22.4-17.5 6.9-32.6 12.8-43 12.8-11.7 0-26.9-6-44.4-13-23.5-9.3-50.1-19.9-78.3-19.9h-2c-65.4 1-127.4 38.5-161.5 97.9z"/><path d="M833.1 0c-39.7 1.6-87.3 26-115.8 59.4-24.2 28-47.8 74.7-41.6 121.8.4 2.9 2.8 5.2 5.8 5.4 2.7.2 5.4.3 8.1.3 38.8 0 80.7-21.5 109.3-56C829 94.4 844.2 47.6 839.6 5.6c-.4-3.3-3.3-5.7-6.5-5.6z"/></symbol><symbol viewBox="0 0 510 510" id="icon-cart" xmlns="http://www.w3.org/2000/svg"><path d="M153 408c-28.1 0-51 23-51 51s22.9 51 51 51 51-23 51-51-22.9-51-51-51zM0 0v51h51l91.8 193.8-35.7 61.2c-2.6 7.6-5.1 17.9-5.1 25.5 0 28 22.9 51 51 51h306v-51H163.2c-2.6 0-5.1-2.5-5.1-5.1v-2.6l22.9-43.4h188.7c20.4 0 35.7-10.2 43.4-25.5l91.8-165.7c5.1-5.1 5.1-7.7 5.1-12.8 0-15.3-10.2-25.5-25.5-25.5H107.1L84.2 0H0zm408 408c-28 0-51 23-51 51s23 51 51 51 51-23 51-51-23-51-51-51z"/></symbol><symbol viewBox="0 0 612 612" id="icon-close" xmlns="http://www.w3.org/2000/svg"><path d="M612 36L576.5.6 306 270.6 35.5.6 0 36l270.5 270L0 576l35.5 35.4 270.5-270 270.5 270L612 576 341.5 306z"/></symbol><symbol viewBox="598 0 768 768" id="icon-comment" xmlns="http://www.w3.org/2000/svg"><path d="M982 0C769.9 0 598 171.9 598 384c0 80.3 24.6 154.8 66.7 216.4l-50.4 151.3 151.3-50.4C827.2 743.4 901.7 768 982 768c212.1 0 384-171.9 384-384S1194.1 0 982 0z"/></symbol><symbol viewBox="299 141.1 768 485.8" id="icon-delivery" xmlns="http://www.w3.org/2000/svg"><path d="M1013.2 347l-19.9-79.6c5.4-1.2 9.5-6 9.5-11.8v-12.8c0-27.8-22.7-50.5-50.5-50.5h-90.6v-26.5c0-13.7-11.1-24.9-24.9-24.9H375.2c-13.7 0-24.9 11.1-24.9 24.9V384c0 6.6 5.4 12 12 12s12-5.4 12-12V165.9c0-.4.4-.8.8-.8h461.8c.4 0 .8.4.8.8V384c0 6.6 5.4 12 12 12s12-5.4 12-12v-13.6h141.9c17.5 0 32.3 11.5 37.4 27.3h-37.4c-6.6 0-12 5.4-12 12v25.7c0 20.8 16.9 37.7 37.7 37.7h13.6V526h-31.4c-10.3-29.8-38.7-51.3-72-51.3s-61.6 21.5-72 51.3h-5.8v-90.6c0-6.6-5.4-12-12-12s-12 5.4-12 12V526H588.2c-10.3-29.8-38.7-51.3-72-51.3s-61.6 21.5-72 51.3h-69.1c-.4 0-.8-.4-.8-.8v-26.5h52.1c6.6 0 12-5.4 12-12s-5.4-12-12-12H311c-6.6 0-12 5.4-12 12s5.4 12 12 12h39.3v26.5c0 13.7 11.1 24.9 24.9 24.9h65v.8c0 42 34.2 76.2 76.2 76.2s76.2-34.2 76.2-76.2v-.8h271v.8c0 42 34.2 76.2 76.2 76.2s76.2-34.2 76.2-76.2v-.8h39.3c6.6 0 12-5.4 12-12V409.7c-.3-31.7-23.7-58-54.1-62.7zM861.8 216.5h90.6c14.6 0 26.5 11.9 26.5 26.5v.8h-117v-27.3zm0 129.8v-78.6h106.9l19.6 78.6H861.8zM516.3 602.9c-28.7 0-52.1-23.4-52.1-52.1s23.4-52.1 52.1-52.1 52.1 23.4 52.1 52.1-23.4 52.1-52.1 52.1zm423.2 0c-28.7 0-52.1-23.4-52.1-52.1s23.4-52.1 52.1-52.1c28.7 0 52.1 23.4 52.1 52.1s-23.3 52.1-52.1 52.1zm103.5-154h-13.6c-7.5 0-13.6-6.1-13.6-13.6v-13.6h27.3l-.1 27.2z"/><path d="M516.3 525.9c-13.7 0-24.9 11.1-24.9 24.9s11.1 24.9 24.9 24.9 24.9-11.1 24.9-24.9-11.2-24.9-24.9-24.9zM939.5 525.9c-13.7 0-24.9 11.1-24.9 24.9s11.1 24.9 24.9 24.9 24.9-11.1 24.9-24.9-11.2-24.9-24.9-24.9zM798.4 474.6H618.9c-6.6 0-12 5.4-12 12s5.4 12 12 12h179.6c6.6 0 12-5.4 12-12s-5.4-12-12.1-12zM490.6 423.3H336.7c-6.6 0-12 5.4-12 12s5.4 12 12 12h153.9c6.6 0 12-5.4 12-12s-5.4-12-12-12zM717.2 260.1c-4.7-4.7-12.3-4.7-17 0L593.2 367l-55.6-55.6c-4.7-4.7-12.3-4.7-17 0-4.7 4.7-4.7 12.3 0 17l64.1 64.1c2.3 2.3 5.4 3.5 8.5 3.5 3.1 0 6.2-1.2 8.5-3.5l115.4-115.4c4.8-4.7 4.8-12.3.1-17z"/></symbol><symbol viewBox="444.4 109.7 1075.1 768" id="icon-envelope" xmlns="http://www.w3.org/2000/svg"><path d="M982 647.3L849 530.8l-380.4 326c13.9 12.9 32.5 20.9 53.1 20.9h920.5c20.4 0 39.1-8 52.8-20.9l-380-325.9-133 116.4z"/><path d="M1495.4 130.6c-13.9-12.9-32.3-20.9-53.1-20.9H521.7c-20.4 0-39.1 8-52.9 21L982 570.6l513.4-440zM444.4 177.2v637.9l371.1-315.4zM1148.5 499.7l371.1 315.4V176.9z"/></symbol><symbol viewBox="395.1 0 575.9 768" id="icon-file" xmlns="http://www.w3.org/2000/svg"><path d="M970.9 155.4c-.1-4.6-1.8-9.1-5.2-12.5L828 5.3C824.8 2 820.3 0 815.3 0H432.9C412 0 395 17 395 37.9v692.3c0 20.9 17 37.9 37.9 37.9h500.2c20.9 0 37.9-17 37.9-37.9V155.6c-.1 0-.1-.1-.1-.2zm-137.6-94l76.3 76.3h-74.4c-1 0-1.9-.9-1.9-1.9V61.4zM935 730.1c0 1-.8 1.9-1.9 1.9H432.9c-1 0-1.9-.8-1.9-1.9V37.9c0-1 .8-1.9 1.9-1.9h364.4v99.8c0 20.9 17 37.9 37.9 37.9H935v556.4z"/><path d="M842.1 246H523.9c-9.9 0-18 8.1-18 18s8.1 18 18 18h318.3c9.9 0 18-8.1 18-18-.1-9.9-8.1-18-18.1-18zM842.1 354.5H523.9c-9.9 0-18 8.1-18 18s8.1 18 18 18h318.3c9.9 0 18-8.1 18-18-.1-9.9-8.1-18-18.1-18zM842.1 463H523.9c-9.9 0-18 8.1-18 18s8.1 18 18 18h318.3c9.9 0 18-8.1 18-18-.1-9.9-8.1-18-18.1-18zM683 571.5H523.9c-9.9 0-18 8.1-18 18s8.1 18 18 18H683c9.9 0 18-8.1 18-18s-8.1-18-18-18z"/></symbol><symbol viewBox="315.5 16.5 735 735" id="icon-globe" xmlns="http://www.w3.org/2000/svg"><path fill="#F9B000" d="M942.8 124.2C873.5 54.8 781.1 16.5 683 16.5S492.5 54.8 423.2 124.2 315.5 285.9 315.5 384s38.3 190.5 107.7 259.8S584.9 751.5 683 751.5s190.5-38.3 259.8-107.7 107.7-161.7 107.7-259.8-38.2-190.5-107.7-259.8zm74.4 243.3H874.7c-1.3-56.7-9.3-111.3-23.3-159.8 27.2-14 52.5-31.5 75.8-52.2 52.5 56.2 86 130.3 90 212zm-317.7 33h142.3c-1.2 52.2-8.4 102.2-20.8 146.8-38.4-15.4-79.3-24.4-121.5-26.4V400.5zm204-267.9c-19.2 16.9-40.2 31.4-62.4 43.4-5.7-15.9-12.2-30.9-19.3-45-14.3-28.2-30.4-51.3-48.3-69 48.7 13.6 92.9 38 130 70.6zm-204-78c34.3 7.6 66.8 39.3 92.8 90.9 7.1 14 13.3 28.8 18.9 44.6-35.3 14.6-72.9 23.1-111.8 25.1V54.6zm121.7 167.1c12.3 44.4 19.3 94 20.5 146H699.5V248.3c42.3-2 83.3-11.1 121.7-26.6zM666.5 367.5H524.2c1.2-51.9 8.3-101.5 20.5-145.9 38.4 15.6 79.5 24.6 121.6 26.4v119.5h.2zm.2-312.9v160.5c-38.8-2-76.7-10.5-111.8-25.1 5.5-15.8 11.8-30.6 18.9-44.6 26.1-51.5 58.5-83.2 92.9-90.8zm-74 7.3c-17.8 17.7-34 40.9-48.3 69-7 14.1-13.5 29.1-19.3 45-22.2-12-43.1-26.4-62.4-43.3 37-32.6 81.3-57 130-70.7zM439 155.5c23.3 20.7 48.6 38.1 75.8 52.2-14 48.6-22 103.1-23.3 159.8H349c4-81.8 37.5-155.9 90-212zm-90 245h142.5c1.3 57.2 9.5 111.9 23.5 160.7-27 13.9-52.4 31.2-75.5 51.9-52.9-56.3-86.5-130.5-90.5-212.6zM463.3 636c19.2-16.8 40-31.2 62.1-43.1 5.7 15.5 12 30.3 19 44.1 14.3 28.2 30.5 51.3 48.3 69.1-48.4-13.6-92.6-37.8-129.4-70.1zm203.4 77.4c-34.3-7.7-66.8-39.3-92.8-90.9-6.9-13.7-13.1-28.2-18.6-43.7 35.1-14.5 72.8-23.1 111.5-24.9v159.5h-.1zm-121.5-166c-12.5-44.7-19.7-94.7-20.8-146.8h142.3V521c-42.2 1.8-83.1 10.8-121.5 26.4zm154.5 166V554c38.7 1.9 76.3 10.3 111.5 24.9-5.5 15.4-11.7 30-18.6 43.7-26.2 51.5-58.6 83.2-92.9 90.8zm73.9-7.3c17.8-17.7 34.1-40.9 48.3-69.2 7-13.8 13.3-28.6 19-44.1 22.1 11.8 42.9 26.3 62.1 43.1-36.8 32.4-80.9 56.7-129.4 70.2zm153.3-93c-23.1-20.5-48.5-37.9-75.5-51.9 14.1-48.8 22.2-103.6 23.6-160.6h142.5c-4.2 82-37.8 156.2-90.6 212.5z"/></symbol><symbol viewBox="801.2 0 564.4 768.1" id="icon-map-marker" xmlns="http://www.w3.org/2000/svg"><path d="M1084.2 0c-155.6 0-283 126.6-283 283 0 40.9 8.6 79.4 24.4 115.6 70.7 154.1 206.7 317.6 246 364 3.1 3.1 7.1 5.5 11.8 5.5s8.6-2.4 11.8-5.5c40.1-46.4 175.3-209.9 246-364.7 16.5-36.2 24.4-74.7 24.4-115.6C1366.4 126.6 1239.8 0 1084.2 0zm0 430c-81 0-147-66-147-147s66-147 147-147 146.2 66 146.2 147-65.2 147-146.2 147z"/></symbol><symbol viewBox="299 137.7 768 492.7" id="icon-menu" xmlns="http://www.w3.org/2000/svg"><path d="M328 195.6h710c16 0 29-13 29-29s-13-29-29-29H328c-16 0-29 13-29 29s13 29 29 29zM328 413h710c16 0 29-13 29-29s-13-29-29-29H328c-16 0-29 13-29 29s13 29 29 29zM328 630.3h710c16 0 29-13 29-29s-13-29-29-29H328c-16 0-29 13-29 29 0 16.1 13 29 29 29z"/></symbol><symbol viewBox="299 365.7 768 36.6" id="icon-minus" xmlns="http://www.w3.org/2000/svg"><path d="M299 365.7h768v36.6H299z"/></symbol><symbol viewBox="0 0 528.9 528.9" id="icon-pencil" xmlns="http://www.w3.org/2000/svg"><path d="M328.9 89.1l107.6 107.6-272.4 272.4L56.6 361.5 328.9 89.1zm189.2-25.9l-48-48c-18.5-18.5-48.7-18.5-67.3 0l-46 46 107.6 107.6 53.6-53.6c14.5-14.4 14.5-37.6.1-52zM.3 512.7c-2 8.8 6 16.7 14.8 14.6L135 498.2 27.5 390.6.3 512.7z"/></symbol><symbol viewBox="597.6 0.2 768.6 768" id="icon-phone" xmlns="http://www.w3.org/2000/svg"><path d="M1365.8 606.4c1.6 12.5-2.2 23.3-11.4 32.5l-108.2 107.4c-4.9 5.4-11.2 10-19.1 13.8-7.9 3.8-15.6 6.2-23.2 7.3-.5 0-2.2.1-4.9.4-2.7.3-6.2.4-10.6.4-10.3 0-27-1.8-50-5.3s-51.2-12.2-84.7-26c-33.3-13.8-71.1-34.6-113.5-62.2-42.3-27.7-87.3-65.7-135-113.9-37.9-37.4-69.4-73.2-94.4-107.4-24.9-34.1-45-65.7-60.2-94.8s-26.6-55.3-34.1-79-12.7-43.9-15.4-61c-2.7-17.1-3.8-30.5-3.3-40.2.5-9.7.8-15.2.8-16.3 1.1-7.6 3.5-15.3 7.3-23.2 3.8-7.9 8.4-14.2 13.8-19.1L728 11.6C735.6 4 744.3.2 754 .2c7 0 13.3 2 18.7 6.1 5.4 4.1 10 9.1 13.8 15l87.1 165.1c4.9 8.7 6.2 18.2 4.1 28.5-2.2 10.3-6.8 19-13.8 26l-39.8 39.8c-1.1 1.1-2 2.8-2.8 5.3-.8 2.4-1.2 4.5-1.2 6.1 2.2 11.4 7 24.4 14.6 39 6.5 13 16.5 28.9 30.1 47.6 13.6 18.7 32.8 40.2 57.7 64.6 24.4 24.9 46.1 44.3 65 58.1 19 13.8 34.8 24 47.6 30.5 12.8 6.5 22.5 10.4 29.3 11.8l10.2 2c1.1 0 2.8-.4 5.3-1.2 2.4-.8 4.2-1.8 5.3-2.8l46.3-47.2c9.8-8.7 21.1-13 34.1-13 9.2 0 16.5 1.6 22 4.9h.8l157 92.8c11.5 7.4 18.3 16.3 20.4 27.2z"/></symbol><symbol viewBox="299 0 768 768" id="icon-plus" xmlns="http://www.w3.org/2000/svg"><path d="M1067 365.7H701.3V0h-36.6v365.7H299v36.6h365.7V768h36.6V402.3H1067z"/></symbol><symbol viewBox="299 115.5 768 537.1" id="icon-return" xmlns="http://www.w3.org/2000/svg"><path d="M876.2 271H353.1l110-123.3c7.1-8 6.4-20.3-1.6-27.4-8-7.1-20.3-6.4-27.4 1.6L310.3 260.8c-15.1 16.9-15.1 42.4 0 59.3L434.2 459c3.8 4.3 9.1 6.5 14.5 6.5 4.6 0 9.2-1.6 12.9-4.9 8-7.1 8.7-19.4 1.6-27.4l-110-123.3h523.1c83.8 0 151.9 68.2 151.9 151.9S960 613.7 876.3 613.7h-92.4c-10.7 0-19.4 8.7-19.4 19.4s8.7 19.4 19.4 19.4h92.4c105.2 0 190.7-85.6 190.7-190.7 0-105.2-85.6-190.8-190.8-190.8z"/></symbol><symbol viewBox="315.5 16.5 735 735" id="icon-search" xmlns="http://www.w3.org/2000/svg"><path d="M1041.5 699.3L864.8 522.6c43.8-53.4 70.2-121.8 70.2-196.3 0-171-138.8-309.8-309.8-309.8-171.1 0-309.8 138.8-309.8 309.8S454.1 636 625.3 636c74.6 0 142.8-26.3 196.2-70.1l176.7 176.6c12 12 31.3 12 43.3 0 12-11.8 12-31.3 0-43.2zm-416.2-125C488.3 574.3 377 463 377 326.2S488.3 78 625.3 78c136.8 0 248.3 111.5 248.3 248.3s-111.5 248-248.3 248z"/></symbol><symbol viewBox="299 64 768 640" id="icon-shop" xmlns="http://www.w3.org/2000/svg"><path d="M1002.7 64H363.3c-35.5 0-64.3 28.8-64.3 64.3v351.4c0 35.5 28.8 64.3 64.3 64.3h217.5L559 609.5c-20.7 5.4-36 24.2-36 46.5v16h-48c-8.8 0-16 7.2-16 16s7.2 16 16 16h416c8.8 0 16-7.2 16-16s-7.2-16-16-16h-48v-16c0-22.3-15.3-41.1-36-46.5L785.2 544h217.5c35.5 0 64.3-28.8 64.3-64.3V128.3c0-35.5-28.8-64.3-64.3-64.3zM795 640c8.8 0 16 7.2 16 16v16H555v-16c0-8.8 7.2-16 16-16h224zm-201.8-32l21.3-64h136.9l21.3 64H593.2zM1035 479.7c0 17.8-14.5 32.3-32.3 32.3H363.3c-17.8 0-32.3-14.5-32.3-32.3V464h607.8c8.8 0 16-7.2 16-16s-7.2-16-16-16H331V128.3c0-17.8 14.5-32.3 32.3-32.3h639.4c17.7 0 32.1 14.3 32.3 32H429.8c-8.8 0-16 7.2-16 16s7.2 16 16 16H1035v319.7z"/><path d="M588.2 326.7c1.2 7.1 7.2 12.7 14.7 13.2l122 8.1c8.4.6 15.8-5.5 16.9-13.9l10.2-80.8 3.1-24.2 21.3.1c8.8 0 16-7.1 16-15.9s-7.1-16-15.9-16l-35.4-.2c-8.1 0-14.9 6.1-15.9 13.9l-4.8 38.2-8.3 65.9-94.5-6.3-8.8-49.5h63.5c8.8 0 16-7.2 16-16s-7.2-16-16-16h-82.6c-.9 0-1.8.1-2.8.2-8.7 1.5-14.5 9.8-13 18.5l14.3 80.7zM628.1 362.9c-8.8 0-16 7.2-16 16s7.2 16 16 16 16-7.2 16-16-7.2-16-16-16zM709.6 362.9c-8.8 0-16 7.2-16 16s7.2 16 16 16 16-7.2 16-16-7.1-16-16-16zM380.7 128h-7.2c-8.8 0-16 7.2-16 16s7.2 16 16 16h7.2c8.8 0 16-7.2 16-16s-7.2-16-16-16zM985 464h6.8c8.8 0 16-7.2 16-16s-7.2-16-16-16H985c-8.8 0-16 7.2-16 16s7.2 16 16 16z"/></symbol><symbol viewBox="299 18.1 768 731.8" id="icon-star" xmlns="http://www.w3.org/2000/svg"><path d="M1066.3 296.6c-1.6-5-5.9-8.6-11.1-9.4l-248.7-36.1L695.3 25.8c-2.3-4.7-7.1-7.7-12.3-7.7s-10 3-12.3 7.7L559.5 251.1l-248.7 36.1c-5.2.8-9.5 4.4-11.1 9.4-1.6 5-.3 10.4 3.5 14.1l180 175.4-42.5 247.7c-.9 5.2 1.2 10.4 5.5 13.4 4.2 3.1 9.9 3.5 14.5 1L683 631.4l222.4 116.9c2 1.1 4.2 1.6 6.4 1.6 2.8 0 5.7-.9 8.1-2.6 4.2-3.1 6.4-8.3 5.5-13.4l-42.5-247.7 180-175.4c3.7-3.7 5-9.2 3.4-14.2z"/></symbol><symbol viewBox="390.9 0 584.1 768" id="icon-user" xmlns="http://www.w3.org/2000/svg"><path d="M683 375.6c85.4 0 154.6-84.1 154.6-187.8C837.6 84.1 814.9 0 683 0S528.4 84.1 528.4 187.8c0 103.7 69.2 187.8 154.6 187.8zM391 662.4c-.1-6.4-.1-1.8 0 0zM975 667.3c.1-1.7.1-12 0 0zM974.7 654.8c-2.9-180.7-26.5-232.2-207-264.8 0 0-25.4 32.4-84.7 32.4S598.3 390 598.3 390c-178.6 32.2-203.6 83-206.9 258.9-.3 14.4-.4 15.1-.4 13.5v19s43 86.7 292 86.7 292-86.7 292-86.7v-14c0 .9-.1-1.1-.3-12.6z"/></symbol><symbol viewBox="356.7 0 652.6 768" id="icon-warranty" xmlns="http://www.w3.org/2000/svg"><path d="M1007.1 639.1L894.9 441.9c11.4-5.3 18.2-17.4 17.4-31.1L904 341l47.8-50.1c10.6-10.6 11.4-28.8.8-41.7l-47.8-51.6 9.9-70.5c1.5-15.2-9.1-30.3-24.3-33.4l-69-13.7L788 18.6c-6.8-14.4-23.5-20.5-38.7-14.4h-.8l-63.7 29.6-62.2-30.2c-6.8-3.8-15.2-4.6-22.8-2.3s-13.7 7.6-17.4 14.4l-34.1 61.4-69 12.1c-15.9 3-26.5 17.4-25 34.1l8.3 69.8-47.8 50.1c-10.6 10.6-11.4 28.8-.8 41.7l47.8 51.6L452 407c-1.5 13.7 6.8 26.5 19.7 31.9l-113 200.2c-3 4.6-2.3 10.6 0 15.2 3 4.6 7.6 7.6 12.9 7.6h121.3l55.4 96.3c3 4.6 7.6 7.6 12.9 7.6s10.6-3 12.9-7.6l108.4-185L791 760.4c3 4.6 7.6 7.6 12.9 7.6 5.3 0 10.6-3 12.9-7.6l55.4-98.6h121.3c5.3 0 10.6-3 12.9-7.6 3.7-4.5 3.7-10.6.7-15.1zm-445.2 81.1l-47-81.1c-3-4.6-7.6-7.6-12.9-7.6H397.4l104.7-185 43.2 7.6 33.4 61.4c6.8 14.4 23.5 20.5 38.7 14.4h.8l31.1-14.4 15.2 26.5-102.6 178.2zm44-217.6h-.8l-33.4-62.9c-4.6-7.6-12.1-13.7-21.2-14.4l-69.8-12.9 9.9-69.8c1.5-9.1-1.5-19-7.6-25L436 266l47.8-50.1c6.8-6.8 9.9-15.9 8.3-25l-8.3-69s0-.8.8-1.5l69-12.1c8.3-1.5 16.7-6.8 21.2-15.2L609 31.6 671.2 62c8.3 4.6 19 4.6 27.3 0l62.9-28.8h.8l33.4 62.9c4.6 7.6 12.1 13.7 20.5 14.4l69 13.7-9.9 69.8c-1.5 9.1 1.5 19 7.6 25l47.8 51.6-48.6 50c-6.8 6.8-9.9 15.9-8.3 25l8.3 69.8-68.3 11.4c-8.3 1.5-16.7 6.8-21.2 15.2l-34.1 61.4-62.2-30.4c-8.3-4.6-19-4.6-27.3 0l-63 29.6zm257.9 128.9c-5.3 0-10.6 3-12.9 7.6l-47 83.4-106.9-185c-.8-2.3-1.5-3.8-3-5.3l-16.7-29.6 5.3-2.3 62.2 30.3c4.6 2.3 9.1 3 13.7 3 10.6 0 21.2-5.3 26.5-15.2l34.1-61.4 45.5-8.3 103.9 182.8H863.8z"/><path d="M834.2 267.5c0-83.4-68.3-151.7-151.7-151.7S530.9 184 530.9 267.5s68.3 151.7 151.7 151.7 151.6-68.3 151.6-151.7zM682.5 388.8c-66.7 0-121.3-54.6-121.3-121.3s54.6-121.3 121.3-121.3 121.3 54.6 121.3 121.3-54.5 121.3-121.3 121.3z"/></symbol><symbol viewBox="0 0 49.7 49.7" id="social-fb" xmlns="http://www.w3.org/2000/svg"><path d="M24.8 0C11.1 0 0 11.1 0 24.8c0 13.7 11.1 24.8 24.8 24.8 13.7 0 24.8-11.1 24.8-24.8C49.7 11.1 38.5 0 24.8 0zM31 25.7h-4v14.4h-6V25.7h-2.8v-5.1H21v-3.3c0-2.4 1.1-6 6-6h4.4v4.9h-3.2c-.5 0-1.2.3-1.2 1.4v3h4.6l-.6 5.1z"/></symbol><symbol viewBox="0 0 97.8 97.8" id="social-ok" xmlns="http://www.w3.org/2000/svg"><path d="M48.9 40.5c4.7 0 8.4-3.8 8.4-8.4 0-4.7-3.7-8.4-8.4-8.4s-8.5 3.8-8.4 8.5c0 4.6 3.7 8.3 8.4 8.3z"/><path d="M48.9 0C21.9 0 0 21.9 0 48.9s21.9 48.9 48.9 48.9 48.9-21.9 48.9-48.9S75.9 0 48.9 0zm0 14.9c9.5 0 17.2 7.8 17.1 17.4 0 9.4-7.8 17-17.3 17-9.4 0-17.1-7.8-17.1-17.3.1-9.5 7.8-17.2 17.3-17.1zm19.3 41.2c-2.1 2.2-4.6 3.7-7.5 4.8-2.7 1-5.6 1.5-8.5 1.9.4.5.6.7.9 1l11.8 11.8c1.3 1.3 1.6 3 .9 4.6-.8 1.7-2.6 2.8-4.4 2.7-1.1-.1-2-.6-2.8-1.4-3-3-6-5.9-8.9-8.9-.8-.9-1.2-.7-2 .1-3 3.1-6 6.1-9 9.1-1.4 1.3-3 1.6-4.6.8-1.7-.8-2.8-2.5-2.7-4.3.1-1.2.6-2.1 1.4-2.9 3.9-3.9 7.7-7.8 11.6-11.6l.9-.9c-5.3-.6-10-1.8-14.1-5l-1.5-1.2c-1.8-1.7-2-3.7-.6-5.7 1.2-1.7 3.2-2.2 5.3-1.2.4.2.8.4 1.2.7 7.6 5.2 18 5.4 25.6.2.8-.6 1.6-1 2.5-1.3 1.8-.5 3.5.2 4.5 1.8 1.4 1.7 1.4 3.4 0 4.9z"/></symbol><symbol viewBox="0 0 97.8 97.8" id="social-vk" xmlns="http://www.w3.org/2000/svg"><path d="M48.9 0C21.9 0 0 21.9 0 48.9s21.9 48.9 48.9 48.9 48.9-21.9 48.9-48.9S75.9 0 48.9 0zm24.8 54.2c2.3 2.2 4.7 4.3 6.7 6.8.9 1.1 1.8 2.2 2.4 3.5.9 1.8.1 3.8-1.5 3.9h-10c-2.6.2-4.6-.8-6.4-2.6-1.4-1.4-2.7-2.9-4-4.4-.5-.6-1.1-1.2-1.8-1.6-1.4-.9-2.6-.6-3.3.8-.8 1.5-1 3.1-1.1 4.7-.1 2.4-.8 3-3.2 3.1-5.1.2-9.9-.5-14.3-3.1-3.9-2.3-7-5.4-9.6-9-5.2-7-9.1-14.7-12.7-22.6-.8-1.8-.2-2.7 1.8-2.8 3.3-.1 6.5-.1 9.8 0 1.3 0 2.2.8 2.7 2 1.8 4.3 3.9 8.5 6.6 12.3.7 1 1.5 2 2.5 2.8 1.2.8 2 .5 2.6-.8.3-.8.5-1.7.6-2.6.3-3 .3-6-.2-9-.3-2-1.3-3.2-3.2-3.6-1-.2-.8-.5-.4-1.1.8-.9 1.6-1.5 3.1-1.5h11.3c1.8.4 2.2 1.1 2.4 2.9v12.6c0 .7.3 2.8 1.6 3.2 1 .3 1.7-.5 2.3-1.1 2.7-2.9 4.6-6.3 6.4-9.8.8-1.6 1.4-3.2 2.1-4.8.5-1.2 1.2-1.8 2.6-1.8h10.9c.3 0 .6 0 1 .1 1.8.3 2.3 1.1 1.8 2.9-.9 2.8-2.6 5.2-4.3 7.5-1.8 2.5-3.8 4.9-5.6 7.5-1.8 2.4-1.7 3.6.4 5.6z"/></symbol></svg>