<?xml version="1.0" encoding="utf-8"?>
<!-- Generator: Adobe Illustrator 18.0.0, SVG Export Plug-In . SVG Version: 6.00 Build 0)  -->
<!DOCTYPE svg PUBLIC "-//W3C//DTD SVG 1.1//EN" "http://www.w3.org/Graphics/SVG/1.1/DTD/svg11.dtd">
<svg version="1.1" id="Слой_1" xmlns="http://www.w3.org/2000/svg" xmlns:xlink="http://www.w3.org/1999/xlink" x="0px" y="0px"
	 viewBox="0 0 1236.7 527.2" enable-background="new 0 0 1236.7 527.2" xml:space="preserve">
<g>
	<g>
		<path d="M770.2,501.9v-6.6c-2.2,2.9-4.7,4.9-7.2,5.8c-2.6,1-5.4,1.5-8.5,1.5c-2.8,0-5.4-0.4-7.8-1.3c-2.3-0.8-4.2-2-5.7-3.5
			c-1.4-1.4-2.5-3-3.4-4.8c-0.9-1.8-1.5-3.7-2-5.8c-0.5-2-0.8-4.2-1-6.3c-0.2-2.2-0.3-4.3-0.3-6.5c0-2.2,0.1-4.3,0.3-6.5
			c0.2-2.2,0.5-4.3,1-6.3c0.5-2,1.2-4,2-5.8c0.9-1.8,2-3.4,3.4-4.8c1.5-1.5,3.4-2.7,5.7-3.5c2.3-0.9,4.9-1.3,7.8-1.3
			c3.1,0,5.9,0.5,8.4,1.4c2.6,0.9,4.9,2.8,7.2,5.7V422h8.2v79.9H770.2z M770.1,474.3c0-2.7-0.2-5.3-0.5-7.9
			c-0.3-2.5-0.9-4.8-1.9-6.7c-1-2-2.3-3.5-4.2-4.7c-1.8-1.2-4.2-1.8-7.2-1.8c-3,0-5.4,0.6-7.2,1.8c-1.8,1.2-3.2,2.8-4.2,4.7
			c-0.9,1.9-1.6,4.2-1.9,6.7c-0.3,2.5-0.5,5.2-0.5,7.9s0.2,5.3,0.5,7.9c0.3,2.5,1,4.8,1.9,6.7c1,1.9,2.4,3.5,4.2,4.7
			c1.8,1.2,4.2,1.8,7.2,1.8c3,0,5.4-0.6,7.2-1.8c1.8-1.2,3.2-2.8,4.2-4.7c1-1.9,1.6-4.2,1.9-6.7C770,479.6,770.1,477,770.1,474.3z"
			/>
		<path d="M834.3,501.9v-5.3c-2.2,2.2-4.6,3.8-6.9,4.6c-2.4,0.9-5.4,1.3-9.1,1.3c-3.8,0-6.9-0.4-9.4-1.2c-2.5-0.8-4.5-2.1-6.3-3.9
			c-1.3-1.3-2.4-3-3.1-5c-0.7-2-1-4-1-6.2c0-4.9,1.6-8.7,4.8-11.6c3.3-2.9,8-4.3,14.2-4.3h16.6v-5.3c0-4-1.1-7.1-3.2-9.1
			c-2.2-2-5.8-3-10.9-3c-3.6,0-6.4,0.5-8.4,1.4c-2,0.9-3.8,2.6-5.5,4.9l-5.5-5c2.5-3.2,5.2-5.4,8.3-6.5c3-1.1,6.8-1.7,11.3-1.7
			c7.5,0,13.1,1.5,16.7,4.7c3.6,3.1,5.5,7.7,5.5,13.8v37.5H834.3z M834.2,476.4h-15.5c-8.2,0-12.3,3.2-12.3,9.8c0,3.2,1,5.6,3,7.1
			c2,1.5,5.3,2.3,9.6,2.3c2.4,0,4.6-0.2,6.7-0.6c2.1-0.4,4-1.4,5.7-3.1c1.9-1.8,2.8-5,2.8-9.6V476.4z"/>
		<path d="M899.4,501.9v-6.6c-2.3,2.9-4.7,4.9-7.2,5.8c-2.6,1-5.4,1.5-8.5,1.5c-2.8,0-5.4-0.4-7.7-1.3c-2.3-0.8-4.2-2-5.7-3.5
			c-1.4-1.4-2.5-3-3.4-4.8c-0.9-1.8-1.6-3.7-2-5.8c-0.5-2-0.8-4.2-1-6.3c-0.2-2.2-0.3-4.3-0.3-6.5c0-2.2,0.1-4.3,0.3-6.5
			c0.2-2.2,0.5-4.3,1-6.3c0.5-2,1.1-4,2-5.8c0.9-1.8,2-3.4,3.4-4.8c1.5-1.5,3.4-2.7,5.7-3.5c2.3-0.9,4.9-1.3,7.7-1.3
			c3.1,0,5.9,0.5,8.4,1.4c2.5,0.9,4.9,2.8,7.2,5.7V422h8.2v79.9H899.4z M899.3,474.3c0-2.7-0.1-5.3-0.5-7.9
			c-0.3-2.5-0.9-4.8-1.9-6.7c-1-2-2.4-3.5-4.2-4.7c-1.8-1.2-4.2-1.8-7.2-1.8c-3,0-5.4,0.6-7.2,1.8c-1.8,1.2-3.2,2.8-4.2,4.7
			c-1,1.9-1.6,4.2-1.9,6.7c-0.4,2.5-0.5,5.2-0.5,7.9s0.1,5.3,0.5,7.9c0.3,2.5,1,4.8,1.9,6.7c1,1.9,2.4,3.5,4.2,4.7
			c1.8,1.2,4.2,1.8,7.2,1.8c3,0,5.4-0.6,7.2-1.8c1.8-1.2,3.2-2.8,4.2-4.7c1-1.9,1.6-4.2,1.9-6.7C899.2,479.6,899.3,477,899.3,474.3z
			"/>
		<path d="M973,503.6c0,3.4-0.5,6.6-1.6,9.5c-1,2.9-2.6,5.4-4.5,7.5c-2,2.1-4.4,3.7-7.3,4.9c-2.9,1.2-6.1,1.8-9.7,1.8
			c-2.1,0-4-0.1-5.6-0.4c-1.6-0.3-3.2-0.7-4.6-1.3c-1.5-0.6-2.9-1.4-4.3-2.3c-1.4-0.9-2.8-2.1-4.2-3.4l5.3-5.2
			c1,0.9,1.9,1.7,2.9,2.4c0.9,0.7,1.9,1.3,2.9,1.7c1,0.5,2.1,0.8,3.3,1.1c1.2,0.2,2.6,0.3,4.1,0.3c2.7,0,5-0.5,6.9-1.4
			c1.9-0.9,3.5-2.1,4.7-3.6c1.2-1.5,2.1-3.3,2.7-5.3c0.6-2.1,0.8-4.3,0.8-6.7v-8.7c-2.2,2.9-4.6,4.8-7.2,5.7c-2.6,1-5.3,1.5-8.3,1.5
			c-2.8,0-5.4-0.5-7.7-1.3c-2.3-0.9-4.2-2.1-5.7-3.6c-2.8-2.8-4.6-6.2-5.4-10.2c-0.9-4-1.3-8.3-1.3-12.8c0-4.5,0.4-8.8,1.3-12.8
			c0.9-4,2.7-7.5,5.5-10.2c1.5-1.5,3.4-2.7,5.8-3.5c2.3-0.9,4.9-1.3,7.7-1.3c3.1,0,5.9,0.5,8.4,1.4c2.5,0.9,4.9,2.9,7.1,5.8v-6.5h8
			V503.6z M964.7,473.8c0-2.5-0.1-5.1-0.4-7.6c-0.3-2.5-0.9-4.7-1.9-6.6c-1-1.9-2.4-3.5-4.1-4.7c-1.8-1.2-4.2-1.8-7.2-1.8
			c-3,0-5.4,0.6-7.2,1.8c-1.8,1.2-3.2,2.7-4.2,4.7c-1,1.9-1.6,4.1-1.9,6.6c-0.3,2.5-0.4,5-0.4,7.6c0,2.6,0.1,5.2,0.4,7.6
			c0.3,2.5,0.9,4.7,1.9,6.6c1,1.9,2.4,3.5,4.2,4.7c1.8,1.2,4.2,1.8,7.2,1.8c3,0,5.4-0.6,7.2-1.8c1.8-1.2,3.2-2.8,4.1-4.7
			c1-1.9,1.6-4.1,1.9-6.6C964.6,479,964.7,476.4,964.7,473.8z"/>
		<path d="M1002.7,476.4c0,6.1,1.4,10.8,4.1,14.1c2.8,3.3,6.8,5,12.1,5c3.2,0,5.9-0.5,8-1.5c2.1-1,4.3-2.6,6.4-4.8l5.5,4.8
			c-1.4,1.4-2.8,2.6-4.2,3.7c-1.4,1-2.8,1.9-4.4,2.6c-1.6,0.7-3.3,1.3-5.2,1.6c-1.9,0.4-4,0.6-6.3,0.6c-3.7,0-7-0.6-9.9-1.7
			c-3-1.1-5.5-2.8-7.6-5.2c-2.1-2.3-3.8-5.3-4.9-8.8c-1.2-3.6-1.8-7.8-1.8-12.6c0-9,2-15.9,6.1-20.9c4-4.9,9.6-7.4,16.6-7.4
			c7.2,0,12.8,2.4,16.8,7.2c4,4.8,6,11.3,6,19.5v3.7H1002.7z M1031.7,470.3c-0.1-1.1-0.2-2.1-0.2-2.9c-0.1-0.8-0.2-1.6-0.3-2.2
			c-0.1-0.7-0.2-1.3-0.4-2c-0.2-0.6-0.4-1.3-0.7-2.1c-1.1-2.5-2.7-4.6-5-6.1c-2.3-1.5-4.9-2.2-7.8-2.2c-2.9,0-5.5,0.7-7.8,2.2
			c-2.3,1.5-4,3.5-5.1,6.1c-0.6,1.5-1,2.8-1.2,4c-0.2,1.2-0.4,2.9-0.4,5.2H1031.7z"/>
		<path d="M1077.1,501.9c-2.4,0-4.5-0.4-6.3-1.2c-1.8-0.8-3.2-1.9-4.4-3.2c-1.2-1.4-2.1-2.9-2.7-4.7c-0.6-1.8-0.9-3.7-0.9-5.7v-34
			h-7V447h7v-17.3h8.2V447h11.8v6.1H1071v33.8c0,2.6,0.6,4.5,1.8,6c1.2,1.4,3.1,2.1,5.7,2.1h4.3v7H1077.1z"/>
		<path d="M1103,501.9v-10.4h10.4v10.4H1103z"/>
		<path d="M1169,457.2c-1.5-1.5-2.9-2.6-4.3-3.1c-1.4-0.6-3.1-0.9-5.3-0.9c-2,0-3.8,0.4-5.5,1.1c-1.7,0.7-3,1.8-4.1,3.1
			c-1.1,1.3-2,2.9-2.6,4.7c-0.6,1.8-0.9,3.7-0.9,5.8v33.9h-8.2v-55.2h8.2v6.7c1.5-2.3,3.6-4.1,6.5-5.4c2.8-1.3,5.8-2,9-2
			c2.6,0,5,0.4,7.1,1.1c2.1,0.8,4.1,2.1,6.1,4.1L1169,457.2z"/>
		<path d="M1224.6,501.9v-6.2c-1.9,2.2-4.2,3.9-6.9,5.1c-2.6,1.2-5.5,1.7-8.7,1.7c-6.1,0-10.8-1.7-14.2-5.2c-2-1.9-3.4-4.2-4.3-6.8
			c-0.9-2.6-1.3-5.5-1.3-8.7v-35.2h8.2v34c0,5,1.2,8.6,3.6,11.1c2.4,2.4,5.6,3.7,9.8,3.7c4.2,0,7.5-1.2,10-3.7
			c2.5-2.5,3.7-6.1,3.7-11v-34h8.2v55.2H1224.6z"/>
	</g>
	<g>
		<path fill="#F9B000" d="M476.9,271.9c0,131.7-106.7,238.4-238.4,238.4C106.7,510.3,0,403.6,0,271.9C0,140.2,106.7,33.5,238.4,33.5
			C370.1,33.5,476.9,140.2,476.9,271.9z"/>
		<g>
			<path d="M509.4,29c0,4.4-0.7,8.3-2.2,11.9c-1.5,3.6-3.5,6.7-6.2,9.2c-2.7,2.5-5.9,4.5-9.6,5.9c-3.8,1.4-8,2.1-12.5,2.1h-26.2
				v40.7H442V0h36.8c4.5,0,8.7,0.7,12.5,2.1c3.8,1.4,7,3.4,9.6,5.9c2.6,2.5,4.7,5.6,6.2,9.2C508.6,20.7,509.4,24.7,509.4,29z
				 M498.8,29c0-6.2-1.8-11.1-5.5-14.5c-3.6-3.5-8.8-5.2-15.5-5.2h-25.3v39.6h25.3c6.6,0,11.8-1.7,15.5-5.2
				C497,40.1,498.8,35.3,498.8,29z"/>
			<path d="M519.5,67.3c0.2,3.1,0.4,5.6,0.6,7.3c0.2,1.7,0.7,3.4,1.5,5.1c3.2,7.5,9.3,11.2,18.6,11.2c1.6,0,3.1-0.2,4.6-0.5
				c1.5-0.3,2.9-0.7,4.2-1.2c1.6-0.7,2.9-1.4,4.1-2.2c1.1-0.8,2.7-2.1,4.5-4l6.8,6c-2.5,2.4-4.5,4.2-6.1,5.3
				c-1.6,1.1-3.4,2.1-5.4,2.9c-3.9,1.6-8.3,2.4-13.2,2.4c-9.9,0-17.4-3-22.5-9c-5.2-6-7.7-14.8-7.7-26.4c0-5.4,0.6-10.2,2-14.4
				c1.3-4.2,3.2-7.9,5.6-10.9c2.4-3,5.4-5.3,8.8-6.9c3.5-1.6,7.4-2.4,11.7-2.4c4.4,0,8.3,0.8,11.8,2.3c3.5,1.5,6.4,3.7,8.8,6.6
				c2.4,2.9,4.2,6.3,5.6,10.4c1.3,4.1,1.9,8.6,1.9,13.7v4.6H519.5z M555.6,59.8c-0.1-1.3-0.2-2.4-0.2-3.3c-0.1-0.9-0.1-1.6-0.2-2.3
				c-0.1-0.6-0.2-1.2-0.3-1.7c-0.1-0.5-0.3-1.1-0.5-1.7c-1.2-4-3.3-7.1-6.3-9.3c-3-2.2-6.5-3.3-10.5-3.3c-3.6,0-6.8,0.9-9.6,2.7
				c-2.8,1.8-4.9,4.3-6.3,7.6c-0.4,0.7-0.7,1.5-0.9,2.2c-0.2,0.7-0.4,1.5-0.5,2.4c-0.2,0.8-0.3,1.8-0.4,2.9
				c-0.1,1.1-0.2,2.4-0.3,3.9H555.6z"/>
			<path d="M573.3,98.8V30.5h9.8v59.7h28V30.5h10.1v59.7h27.9V30.5h10.1v68.3H573.3z"/>
			<path d="M677.8,67.3c0.2,3.1,0.4,5.6,0.6,7.3c0.2,1.7,0.7,3.4,1.5,5.1c3.1,7.5,9.3,11.2,18.6,11.2c1.6,0,3.1-0.2,4.6-0.5
				c1.5-0.3,2.9-0.7,4.2-1.2c1.6-0.7,2.9-1.4,4.1-2.2c1.1-0.8,2.6-2.1,4.5-4l6.8,6c-2.5,2.4-4.5,4.2-6.1,5.3
				c-1.6,1.1-3.4,2.1-5.4,2.9c-3.9,1.6-8.3,2.4-13.2,2.4c-9.9,0-17.4-3-22.5-9c-5.2-6-7.7-14.8-7.7-26.4c0-5.4,0.7-10.2,2-14.4
				c1.3-4.2,3.2-7.9,5.6-10.9c2.5-3,5.4-5.3,8.9-6.9c3.5-1.6,7.4-2.4,11.7-2.4c4.3,0,8.2,0.8,11.7,2.3c3.5,1.5,6.4,3.7,8.8,6.6
				c2.4,2.9,4.3,6.3,5.6,10.4c1.3,4.1,1.9,8.6,1.9,13.7v4.6H677.8z M713.9,59.8c-0.1-1.3-0.1-2.4-0.2-3.3c-0.1-0.9-0.1-1.6-0.2-2.3
				c-0.1-0.6-0.2-1.2-0.3-1.7c-0.1-0.5-0.3-1.1-0.5-1.7c-1.2-4-3.3-7.1-6.3-9.3c-3-2.2-6.5-3.3-10.5-3.3c-3.6,0-6.9,0.9-9.7,2.7
				c-2.8,1.8-4.9,4.3-6.3,7.6c-0.4,0.7-0.7,1.5-0.9,2.2c-0.2,0.7-0.4,1.5-0.6,2.4c-0.1,0.8-0.3,1.8-0.3,2.9
				c-0.1,1.1-0.2,2.4-0.3,3.9H713.9z"/>
			<path d="M776.2,98.8v-31h-32.9v31h-9.9V30.5h9.9v28.7h32.9V30.5h10.1v68.3H776.2z"/>
			<path d="M842.2,98.8V45.9l-35,52.9h-9.8V30.5h9.8v52.6l35-52.6h10.1v68.3H842.2z"/>
			<path d="M872.4,67.3c0.2,3.1,0.4,5.6,0.6,7.3c0.2,1.7,0.7,3.4,1.5,5.1c3.1,7.5,9.3,11.2,18.6,11.2c1.6,0,3.1-0.2,4.6-0.5
				c1.5-0.3,2.9-0.7,4.2-1.2c1.6-0.7,2.9-1.4,4.1-2.2c1.1-0.8,2.6-2.1,4.5-4l6.8,6c-2.5,2.4-4.5,4.2-6.1,5.3
				c-1.6,1.1-3.4,2.1-5.4,2.9c-3.9,1.6-8.3,2.4-13.2,2.4c-9.9,0-17.4-3-22.6-9c-5.1-6-7.7-14.8-7.7-26.4c0-5.4,0.7-10.2,2-14.4
				c1.3-4.2,3.2-7.9,5.6-10.9c2.4-3,5.4-5.3,8.9-6.9c3.4-1.6,7.4-2.4,11.7-2.4c4.4,0,8.3,0.8,11.8,2.3c3.5,1.5,6.4,3.7,8.8,6.6
				c2.4,2.9,4.2,6.3,5.6,10.4c1.3,4.1,1.9,8.6,1.9,13.7v4.6H872.4z M908.5,59.8c-0.1-1.3-0.1-2.4-0.2-3.3c0-0.9-0.1-1.6-0.2-2.3
				c-0.1-0.6-0.2-1.2-0.3-1.7c-0.1-0.5-0.3-1.1-0.5-1.7c-1.2-4-3.3-7.1-6.2-9.3c-3-2.2-6.5-3.3-10.6-3.3c-3.6,0-6.8,0.9-9.6,2.7
				c-2.8,1.8-4.9,4.3-6.3,7.6c-0.4,0.7-0.7,1.5-0.9,2.2c-0.2,0.7-0.4,1.5-0.5,2.4c-0.2,0.8-0.3,1.8-0.4,2.9
				c-0.1,1.1-0.2,2.4-0.3,3.9H908.5z"/>
			<path d="M986.3,67.3c0.2,3.1,0.4,5.6,0.6,7.3c0.2,1.7,0.7,3.4,1.5,5.1c3.1,7.5,9.3,11.2,18.6,11.2c1.6,0,3.1-0.2,4.6-0.5
				c1.5-0.3,2.9-0.7,4.2-1.2c1.6-0.7,2.9-1.4,4.1-2.2c1.1-0.8,2.6-2.1,4.5-4l6.8,6c-2.5,2.4-4.5,4.2-6.1,5.3
				c-1.6,1.1-3.4,2.1-5.4,2.9c-3.9,1.6-8.3,2.4-13.2,2.4c-9.9,0-17.4-3-22.6-9c-5.1-6-7.7-14.8-7.7-26.4c0-5.4,0.7-10.2,2-14.4
				c1.3-4.2,3.2-7.9,5.6-10.9c2.5-3,5.4-5.3,8.9-6.9c3.5-1.6,7.4-2.4,11.7-2.4c4.3,0,8.2,0.8,11.7,2.3c3.5,1.5,6.4,3.7,8.8,6.6
				c2.4,2.9,4.3,6.3,5.6,10.4c1.3,4.1,1.9,8.6,1.9,13.7v4.6H986.3z M1022.4,59.8c-0.1-1.3-0.2-2.4-0.2-3.3c-0.1-0.9-0.1-1.6-0.2-2.3
				c-0.1-0.6-0.2-1.2-0.3-1.7c-0.1-0.5-0.3-1.1-0.5-1.7c-1.2-4-3.3-7.1-6.3-9.3c-3-2.2-6.5-3.3-10.5-3.3c-3.6,0-6.8,0.9-9.6,2.7
				c-2.8,1.8-4.9,4.3-6.3,7.6c-0.4,0.7-0.7,1.5-0.9,2.2c-0.2,0.7-0.4,1.5-0.5,2.4c-0.2,0.8-0.3,1.8-0.3,2.9
				c-0.1,1.1-0.2,2.4-0.3,3.9H1022.4z"/>
			<path d="M1091.8,89.5c-1.1,1.2-2.1,2.2-3.1,3.1c-0.9,0.8-1.8,1.6-2.6,2.2c-0.8,0.6-1.6,1.1-2.4,1.6c-0.8,0.5-1.6,0.9-2.6,1.2
				c-3.3,1.4-7.2,2.1-11.5,2.1c-9.6,0-17.2-3.1-22.6-9.3c-5.5-6.2-8.2-14.8-8.2-25.7c0-10.9,2.7-19.5,8.2-25.7
				c5.5-6.2,13-9.3,22.6-9.3c4.3,0,8.2,0.7,11.5,2.1c1.8,0.8,3.5,1.8,4.9,2.9c1.4,1.1,3.3,2.8,5.6,5.1l-6.8,6.4
				c-1.8-1.8-3.2-3.2-4.2-4c-1.1-0.8-2.3-1.5-3.5-2.1c-2.3-1-4.9-1.5-7.6-1.5c-13.7,0-20.6,8.7-20.6,26.1c0,17.4,6.8,26.1,20.4,26.1
				c2.9,0,5.4-0.5,7.5-1.4c1.4-0.6,2.6-1.4,3.7-2.3c1.1-0.9,2.5-2.3,4.4-4.1L1091.8,89.5z"/>
			<path d="M1132.9,39.1v59.7h-10.2V39.1h-23.4v-8.6h55.9v8.6H1132.9z"/>
			<path d="M1213.3,78.3c0,6.2-2,11.2-5.9,14.9c-3.9,3.7-9.2,5.6-15.8,5.6h-30.4V30.5h9.9v27.1h20.5c6.6,0,11.8,1.9,15.8,5.6
				C1211.3,67,1213.3,72,1213.3,78.3z M1203.2,78.3c0-3.9-1.1-6.8-3.3-8.9c-2.1-2-5.3-3-9.5-3h-19.3v23.9h19.3c4.1,0,7.3-1,9.5-3.1
				C1202.1,85.1,1203.2,82.2,1203.2,78.3z"/>
			<path d="M1224.7,98.8V87.3h12v11.5H1224.7z M1235,71.2h-8.6L1225,0h11.5L1235,71.2z"/>
		</g>
		<g>
			<path fill="#FFFFFF" d="M201.2,419c-4.9,0-8.3-4.6-7.4-10.2l1.1-7.3c0.9-5.6-2.5-10.2-7.4-10.2H83.7c-5,0-9.7,4.6-10.6,10.2
				l-1.1,7.3c-0.9,5.6-5.7,10.2-10.6,10.2H38c-5,0-8.3-4.6-7.4-10.2l8-51.6c0.9-5.6,5.7-10.2,10.6-10.2h2.7c4.9,0,11.3-3.9,14-8.6
				c0,0,16.7-28.7,24.8-54c8.1-25.4,14.4-52.8,19-82.3l8.5-54.7c0.9-5.6,5.6-10.2,10.6-10.2h114.2c4.9,0,8.3,4.6,7.4,10.2L221,336.7
				c-0.9,5.6,2.5,10.3,7.4,10.3h7.3c5,0,8.3,4.6,7.4,10.2l-8,51.6c-0.9,5.6-5.6,10.2-10.6,10.2H201.2z M201,191.5
				c0.9-5.6-2.5-10.2-7.4-10.2h-30.5c-5,0-9.7,4.6-10.6,10.2l-2.6,16.3c-0.9,5.6-2.4,14.8-3.5,20.4c0,0-7,38.4-13,59.8
				c-6,21.4-14.2,41.1-24.6,58.9h59c4.9,0,9.7-4.6,10.6-10.3L201,191.5z"/>
			<path fill="#FFFFFF" d="M381.1,391.2c-5,0-9.6-4.6-10.4-10.3l-3.3-24.4c-0.7-5.7-5.4-10.3-10.4-10.3H297c-5,0-10.9,4.2-13.2,9.2
				l-12,26.5c-2.3,5.1-8.2,9.2-13.2,9.2h-26.8c-4.9,0-7.1-4.1-4.7-9.2l111-235.9c2.4-5,8.3-9.1,13.3-9.1h15.7
				c4.9,0,9.7,4.6,10.6,10.2L415.3,381c0.9,5.6-2.4,10.2-7.4,10.2H381.1z M350.1,222.3c-0.8-5.7-3.3-6.1-5.6-1.1l-33.8,74.1
				c-2.3,5.1-0.2,9.2,4.8,9.2h36.7c5,0,8.4-4.6,7.6-10.3L350.1,222.3z"/>
		</g>
		<g>
			<path d="M572.6,419c-4.9,0-8.3-4.6-7.4-10.2l0.8-5c0.9-5.6-2.4-10.2-7.4-10.2H455.3c-5,0-9.7,4.6-10.6,10.2l-0.8,5
				c-0.9,5.6-5.6,10.2-10.6,10.2h-23.2c-4.9,0-8.3-4.6-7.4-10.2l7.6-49.1c0.9-5.6,5.6-10.2,10.5-10.2h2.7c4.9,0,11.2-3.9,14-8.6
				c0,0,16.7-28.6,24.7-53.8c8-25.2,14.3-52.6,18.9-82l8.5-54.5c0.9-5.6,5.6-10.2,10.6-10.2H614c4.9,0,8.3,4.6,7.4,10.2L592,339.3
				c-0.9,5.6,2.5,10.2,7.4,10.2h7.3c4.9,0,8.3,4.6,7.4,10.2l-7.6,49.1c-0.9,5.6-5.6,10.2-10.6,10.2H572.6z M572,194.7
				c0.9-5.6-2.4-10.2-7.4-10.2h-30.3c-4.9,0-9.7,4.6-10.6,10.2l-2.5,16.2c-0.9,5.6-2.4,14.8-3.4,20.3c0,0-7,38.2-13,59.6
				c-6,21.3-14.2,40.9-24.5,58.7h58.7c5,0,9.7-4.6,10.6-10.2L572,194.7z"/>
			<path d="M600,393.6c-4.9,0-6.4-3.5-3.1-7.9l88.3-118.7c3.2-4.3,4-12,1.7-17.1l-45-100.4c-2.3-5.1-0.1-9.2,4.8-9.2h32.5
				c4.9,0,10.7,4.2,12.8,9.4l40.8,101.4c2.1,5.2,4.5,4.8,5.4-0.8l15.5-99.8c0.9-5.6,5.6-10.2,10.6-10.2h24.5c4.9,0,8.3,4.6,7.4,10.2
				l-15.5,99.8c-0.9,5.6,1,6.6,4.1,2.2l74.4-104.2c3.1-4.4,9.7-8,14.7-8h32.5c4.9,0,6.3,3.5,3,7.8l-78.3,103.2
				c-3.3,4.3-4.1,12-1.9,17.1l50.1,115.9c2.2,5.1,0,9.3-4.9,9.3h-33.8c-4.9,0-10.7-4.2-12.7-9.4l-45.2-113.5
				c-2.1-5.2-4.5-4.8-5.3,0.8L760,383.4c-0.9,5.6-5.6,10.2-10.6,10.2h-24.5c-4.9,0-8.3-4.6-7.4-10.2l17.4-111.9
				c0.9-5.6-1-6.6-4.1-2.2l-82.4,116.2c-3.1,4.4-9.7,8-14.7,8H600z"/>
			<path d="M896,393.6c-4.9,0-8.3-4.6-7.4-10.2l36.2-232.8c0.9-5.6,5.6-10.2,10.6-10.2h126.1c4.9,0,8.3,4.6,7.4,10.2l-3.7,23.7
				c-0.9,5.6-5.6,10.2-10.5,10.2H971c-4.9,0-9.7,4.6-10.6,10.2l-6.1,39c-0.9,5.6,2.5,10.2,7.4,10.2h68.5c4.9,0,8.3,4.6,7.4,10.2
				l-3.7,23.7c-0.9,5.6-5.6,10.2-10.6,10.2h-68.5c-4.9,0-9.7,4.6-10.6,10.2l-6.4,41.1c-0.9,5.6,2.5,10.2,7.4,10.2h83.6
				c5,0,8.3,4.6,7.4,10.2l-3.7,23.7c-0.9,5.6-5.6,10.2-10.6,10.2H896z"/>
			<path d="M1182.8,184.5c-4.9,0-9.7,4.6-10.6,10.2l-29.3,188.7c-0.9,5.6-5.6,10.2-10.6,10.2h-24.5c-4.9,0-8.3-4.6-7.4-10.2
				l29.4-188.7c0.9-5.6-2.4-10.2-7.4-10.2h-39.3c-4.9,0-8.3-4.6-7.4-10.2l3.7-23.7c0.9-5.6,5.6-10.2,10.5-10.2h139
				c4.9,0,8.3,4.6,7.4,10.2l-3.7,23.7c-0.9,5.6-5.6,10.2-10.6,10.2H1182.8z"/>
		</g>
	</g>
</g>
</svg>
