<?xml version="1.0" encoding="utf-8"?>
<!-- Generator: Adobe Illustrator 18.0.0, SVG Export Plug-In . SVG Version: 6.00 Build 0)  -->
<!DOCTYPE svg PUBLIC "-//W3C//DTD SVG 1.1//EN" "http://www.w3.org/Graphics/SVG/1.1/DTD/svg11.dtd">
<svg version="1.1" id="Layer_1" xmlns="http://www.w3.org/2000/svg" xmlns:xlink="http://www.w3.org/1999/xlink" x="0px" y="0px"
	 viewBox="65 661.8 1366.1 233.7" enable-background="new 65 661.8 1366.1 233.7" xml:space="preserve">
<g>
	<polygon fill="#4E4E4E" points="979.5,895.5 979.5,665.5 936.6,665.5 905.6,841.2 874.7,665.5 831.8,665.5 831.8,895.5
		862.7,895.5 862.7,713.8 894.3,895.5 917.7,895.5 948.5,713.8 948.5,895.5 	"/>
	<polygon fill="#4E4E4E" points="603.3,895.5 625.9,895.5 625.9,665.5 594.3,665.5 594.3,807.2 540,665.5 516.7,665.5 516.7,895.5
		547.5,895.5 547.5,742.4 	"/>
	<polygon fill="#4E4E4E" points="777.4,895.5 777.4,694.8 815.9,694.8 815.9,665.5 707.4,665.5 707.4,694.8 745.8,694.8
		745.8,895.5 	"/>
	<rect x="658.3" y="665.5" fill="#4E4E4E" width="31" height="230"/>
	<polygon fill="#4E4E4E" points="1096.4,690.4 1096.4,665.5 1011.2,665.5 1011.2,895.5 1096.4,895.5 1096.4,870.6 1042.1,870.6
		1042.1,788.4 1081.3,788.4 1081.3,764.3 1042.1,764.3 1042.1,690.4 	"/>
	<polygon fill="#4E4E4E" points="96,713.8 126.8,895.5 150.2,895.5 181.9,713.8 181.9,895.5 212.7,895.5 212.7,665.5 169.9,665.5
		138.9,841.2 107.9,665.5 65,665.5 65,895.5 96,895.5 	"/>
	<path fill="#4E4E4E" d="M460,870.6l7.6,24.9h23.3V781h-61.7v24h31v8.3c0,6.7,0,12.9-0.8,17.3c-0.8,5.2-1.5,10.6-2.3,15.9
		c-1.5,5.2-2.9,9.8-5.2,12.9c-2.3,3-5.2,5.9-9,8.3c-3.8,2.3-8.3,2.9-13.5,2.9c-4.4,0-8.3-0.8-11.3-2.3c-2.9-1.5-6.1-3.8-8.3-5.9
		c-2.3-2.9-3.8-5.9-5.2-9c-1.5-2.9-2.9-7.6-3.8-12.1c-0.8-4.4-1.5-9-1.5-13.5c0-4.5-0.8-9-0.8-15v-74.1c0-7.6,0.8-14.4,1.5-19.6
		c0.8-5.2,2.3-10.6,5.2-15c2.3-4.4,5.2-8.3,9.8-10.6c4.4-2.3,9.8-3.8,15.9-3.8c4.4,0,8.3,0.8,12.1,2.3c2.9,1.5,6.1,2.9,8.3,5.2
		c2.3,2.3,3.8,5.2,4.4,9c1.5,3.8,2.3,7.6,2.3,11.3c0.8,3.8,0.8,8.3,0.8,13.5v6.7h31c0-2.9,0-5.2,0-6.7c-0.8-10.6-1.5-20.4-3.8-28.7
		c-2.3-8.3-5.9-15.9-10.6-21.8c-4.4-5.9-10.6-10.6-18.1-14.4c-7.6-2.9-16.6-4.4-26.4-4.4c-42.1,0-63.3,27.9-63.3,84.5v58
		c0,11.3,0.8,21.8,1.5,30.1c0.8,9,2.9,17.3,6.1,24.9c2.9,8.3,6.7,14.4,11.3,19.6c4.4,5.2,10.6,9,18.1,12.1
		c7.6,2.9,15.9,4.4,25.6,4.4C443.4,895.8,454,888.6,460,870.6z"/>
	<path fill="#4E4E4E" d="M1352.7,665.5l-46.8,230h31l12.1-57.3h39.2l12.1,57.3h31l-47.5-230L1352.7,665.5L1352.7,665.5z
		 M1352.7,813.2l15.9-98.8l15.9,98.8H1352.7z"/>
	<path fill="#4E4E4E" d="M1211.7,877.4c9.8-12.1,14.4-31,14.4-55.9v-90.4c0-24-4.4-41.5-14.4-51.2c-9-9.8-25.6-15-48.3-15h-48.3
		v229.7h48.3C1186,895.5,1202.5,889.4,1211.7,877.4z M1195.2,813.2v5.2c0,6.7,0,12.1,0,15s0,7.6-0.8,12.1c-0.8,5.2-1.5,8.3-2.9,11.3
		c-1.5,2.3-2.9,4.4-5.2,7.6c-2.3,2.3-5.2,4.4-9,5.2c-3.8,0.8-8.3,1.5-12.9,1.5h-17.4V690.4h16.6c3.8,0,14.4,1.5,16.6,2.3
		c2.3,0.8,3.8,1.5,5.2,2.9c1.5,1.5,2.9,2.9,3.8,4.4c0.8,1.5,2.3,2.9,2.9,5.9c0.8,2.3,2.7,7,2.8,9.7
		C1195.3,721.5,1195.2,813.2,1195.2,813.2z"/>
	<path fill="#4E4E4E" d="M276.9,665.5l-46.8,229.9h31l12.1-57.3h39.2l11.3,57.3h31.1l-46.1-230L276.9,665.5L276.9,665.5L276.9,665.5
		z M276.9,813.2l16-98.8l15.9,98.8H276.9z"/>
	<rect x="1255.4" y="665.5" fill="#4E4E4E" width="31" height="230"/>
</g>
</svg>
