<?xml version="1.0" encoding="utf-8"?>
<!-- Generator: Adobe Illustrator 17.1.0, SVG Export Plug-In . SVG Version: 6.00 Build 0)  -->
<!DOCTYPE svg PUBLIC "-//W3C//DTD SVG 1.1//EN" "http://www.w3.org/Graphics/SVG/1.1/DTD/svg11.dtd">
<svg version="1.1" id="Layer_1" xmlns="http://www.w3.org/2000/svg" xmlns:xlink="http://www.w3.org/1999/xlink" x="0px" y="0px"
	 viewBox="0 0 16.2 16.2" enable-background="new 0 0 16.2 16.2" xml:space="preserve">
<g>
	<g>
		<path fill="#FFFFFF" d="M12.8,10c-0.3-0.3-0.7-0.5-1.2-0.5c-0.4,0-0.8,0.2-1.2,0.5l-1.1,1.1c-0.1,0-0.2-0.1-0.3-0.1
			c-0.1-0.1-0.2-0.1-0.3-0.2c-1-0.6-1.9-1.5-2.8-2.6c-0.4-0.5-0.7-1-0.9-1.5C5.3,6.5,5.6,6.2,5.9,6C5.9,5.9,6,5.8,6.1,5.7
			c0.7-0.7,0.7-1.6,0-2.4L5.2,2.4C5.1,2.3,5,2.2,4.9,2.1C4.7,1.9,4.5,1.7,4.2,1.4C3.9,1.1,3.5,0.9,3.1,0.9S2.3,1.1,1.9,1.4
			c0,0,0,0,0,0L0.8,2.6C0.3,3.1,0.1,3.6,0,4.2C0,5.2,0.2,6.1,0.5,6.7C1,8.2,1.9,9.6,3.1,11.1c1.5,1.8,3.3,3.2,5.4,4.2
			c0.8,0.4,1.8,0.8,3,0.9c0.1,0,0.1,0,0.2,0c0.8,0,1.5-0.3,2-0.8c0,0,0,0,0,0c0.2-0.2,0.4-0.4,0.6-0.6c0.1-0.1,0.3-0.3,0.4-0.4
			c0.3-0.4,0.5-0.8,0.5-1.2c0-0.4-0.2-0.8-0.5-1.2L12.8,10z"/>
		<path fill="#FFFFFF" d="M8.8,3.9c0.9,0.2,1.7,0.6,2.4,1.2c0.6,0.6,1.1,1.5,1.2,2.4c0,0.2,0.2,0.4,0.5,0.4c0,0,0.1,0,0.1,0
			c0.3,0,0.4-0.3,0.4-0.5c-0.2-1.1-0.7-2.1-1.5-2.9C11,3.6,10,3.1,8.9,2.9c-0.3,0-0.5,0.1-0.5,0.4C8.3,3.6,8.5,3.8,8.8,3.9z"/>
		<path fill="#FFFFFF" d="M16.2,7.1c-0.3-1.8-1.1-3.4-2.4-4.7C12.4,1.2,10.8,0.3,9,0C8.8,0,8.6,0.1,8.5,0.4c0,0.3,0.1,0.5,0.4,0.5
			c1.6,0.3,3,1,4.2,2.2c1.2,1.2,1.9,2.6,2.2,4.2c0,0.2,0.2,0.4,0.5,0.4c0,0,0.1,0,0.1,0C16,7.6,16.2,7.4,16.2,7.1z"/>
	</g>
</g>
</svg>
