<?xml version="1.0" encoding="utf-8"?>
<!-- Generator: Adobe Illustrator 17.1.0, SVG Export Plug-In . SVG Version: 6.00 Build 0)  -->
<!DOCTYPE svg PUBLIC "-//W3C//DTD SVG 1.1//EN" "http://www.w3.org/Graphics/SVG/1.1/DTD/svg11.dtd">
<svg version="1.1" id="Layer_1" xmlns="http://www.w3.org/2000/svg" xmlns:xlink="http://www.w3.org/1999/xlink" x="0px" y="0px"
	 viewBox="0 0 23 16" enable-background="new 0 0 23 16" xml:space="preserve">
<path fill="#FFFFFF" d="M21.4,0.3H1.6c-0.8,0-1.4,0.6-1.4,1.4v12.4c0,0.8,0.6,1.4,1.4,1.4h19.8c0.8,0,1.4-0.6,1.4-1.4V1.7
	C22.8,0.9,22.2,0.3,21.4,0.3z M20.1,13.2c-0.1,0.1-0.3,0.2-0.4,0.2c-0.2,0-0.4-0.1-0.5-0.2l-4.6-5.3l-2.7,2
	c-0.1,0.1-0.3,0.1-0.4,0.1c-0.1,0-0.3,0-0.4-0.1l-2.7-2l-4.6,5.3c-0.1,0.2-0.3,0.2-0.5,0.2c-0.2,0-0.3-0.1-0.4-0.2
	c-0.3-0.2-0.3-0.7-0.1-0.9L7.3,7L2.9,3.8C2.6,3.6,2.5,3.1,2.8,2.8C3,2.6,3.4,2.5,3.7,2.7l7.8,5.7l7.8-5.7c0.3-0.2,0.7-0.2,0.9,0.1
	c0.2,0.3,0.2,0.7-0.1,0.9L15.7,7l4.5,5.2C20.4,12.6,20.4,13,20.1,13.2z"/>
</svg>
