<?xml version="1.0" encoding="utf-8"?>
<!-- Generator: Adobe Illustrator 17.1.0, SVG Export Plug-In . SVG Version: 6.00 Build 0)  -->
<!DOCTYPE svg PUBLIC "-//W3C//DTD SVG 1.1//EN" "http://www.w3.org/Graphics/SVG/1.1/DTD/svg11.dtd">
<svg version="1.1" id="Layer_1" xmlns="http://www.w3.org/2000/svg" xmlns:xlink="http://www.w3.org/1999/xlink" x="0px" y="0px"
	 viewBox="0 0 18 20" enable-background="new 0 0 18 20" xml:space="preserve">
<path fill="#FFFFFF" d="M9,0C6,0,3.6,2.5,3.6,5.5c0,2.9,4.9,10.6,5.1,11c0.1,0.1,0.2,0.2,0.3,0.2c0.1,0,0.2-0.1,0.3-0.2
	c0.2-0.3,5.1-8.1,5.1-11C14.4,2.5,12,0,9,0z M9,8.3c-1.4,0-2.6-1.2-2.6-2.6S7.5,3.1,9,3.1s2.6,1.2,2.6,2.6S10.4,8.3,9,8.3z"/>
<path fill="#FFFFFF" d="M12.1,14.1l-0.5,0.9c3.3,0.3,5.3,1.2,5.3,1.9c0,0.8-3.1,2-7.8,2c-4.8,0-7.8-1.2-7.8-2c0-0.7,2-1.6,5.3-1.9
	l-0.6-0.9c-3.1,0.4-5.7,1.3-5.7,2.8c0,2,4.4,3,8.8,3c4.4,0,8.8-1,8.8-3C17.8,15.5,15.3,14.5,12.1,14.1z"/>
</svg>
