<?xml version="1.0" encoding="utf-8"?>
<!-- Generator: Adobe Illustrator 16.2.0, SVG Export Plug-In . SVG Version: 6.00 Build 0)  -->
<!DOCTYPE svg PUBLIC "-//W3C//DTD SVG 1.1//EN" "http://www.w3.org/Graphics/SVG/1.1/DTD/svg11.dtd">
<svg version="1.1" id="Слой_1" xmlns="http://www.w3.org/2000/svg" xmlns:xlink="http://www.w3.org/1999/xlink" x="0px" y="0px"
	 width="24px" height="24px" viewBox="0 0 24 24" enable-background="new 0 0 24 24" xml:space="preserve">
<g>
	<path fill="#FFFFFF" d="M12.486,7.263c0,0-0.387-1.394-3.611-1.394S5.263,7.263,5.263,7.263s-0.115,5.858,0.58,7.67
		c0.58,1.51,3.031,1.51,3.031,1.51s2.449,0,3.029-1.51C12.601,13.121,12.486,7.263,12.486,7.263z"/>
	<path fill="#FFFFFF" d="M14.545,16.961c-2.194,0-3.415,0-3.415,0l-0.775,2.256L8.71,20.861l-1.645-1.645l-0.775-2.256
		c0,0-1.221,0-3.414,0s-2.449,1.805-2.449,1.805v3.418H8.71l0,0h8.284v-3.418C16.994,18.766,16.738,16.961,14.545,16.961z"/>
	<path fill="none" stroke="#FFFFFF" stroke-width="0.8732" stroke-miterlimit="10" d="M23.574,9.079c0,0.464-0.377,0.841-0.84,0.841
		H17.77l-3.543,2.897l-0.063-2.897H10.49c-0.465,0-0.842-0.377-0.842-0.841V2.658c0-0.463,0.377-0.84,0.842-0.84h12.245
		c0.463,0,0.84,0.377,0.84,0.84V9.079z"/>
</g>
</svg>
